<svg version="1.1" id="b7479f35-b76c-414d-9259-8a40bcbac55e" xmlns="http://www.w3.org/2000/svg" xlink="http://www.w3.org/1999/xlink" x="0px" y="0px" viewBox="0 0 963.2 818.1" space="preserve" class="c44258">
          <circle cx="871.4" cy="478.6" r="56.9" class="st0">
          </circle>
          <circle cx="611.8" cy="478.6" r="56.9" class="st0">
          </circle>
          <rect x="531.3" y="23" width="139.1" height="165.2" class="st0">
          </rect>
          <path d="M706.1,189.4H530.2V0h175.9V189.4z M532.5,187.1h171.4V2.3H532.5V187.1z" class="st1">
          </path>
          <path d="M706.1,561.9H530.2V372.5h175.9V561.9z M532.5,559.6h171.4V374.8H532.5V559.6z" class="st1">
          </path>
          <path d="M449,561.9H273.2V372.5H449V561.9z M275.4,559.6h171.4V374.8H275.4V559.6z" class="st1">
          </path>
          <path d="M963.2,561.9H787.3V372.5h175.9V561.9z M789.5,559.6h171.4V374.8H789.5L789.5,559.6z" class="st1">
          </path>
          <rect x="617" y="188.2" width="2.3" height="185.4" class="st1">
          </rect>
          <polygon points="876.3,373.7 874.1,373.7 874.1,270.3 362.2,270.3 362.2,373.7 360,373.7 360,268 876.3,268 " class="st1">
          </polygon>
          <rect x="531.3" y="75.5" width="115.5" height="2.3" class="st1">
          </rect>
          <rect x="531.3" y="106.2" width="115.5" height="2.3" class="st1">
          </rect>
          <rect x="531.3" y="136.9" width="115.5" height="2.3" class="st1">
          </rect>
          <rect x="27.4" y="809.7" width="457.5" height="2" class="st1">
          </rect>
          <circle cx="361.1" cy="467.2" r="68.3" class="st2">
          </circle>
          <polygon points="404.1,460.5 367.8,460.5 367.8,424.2 354.4,424.2 354.4,460.5 318.1,460.5 318.1,474 354.4,474 
                           354.4,510.2 367.8,510.2 367.8,474 404.1,474 " class="st3">
          </polygon>
          <path d="M618.2,536.6c-38.3,0-69.4-31.1-69.4-69.4s31.1-69.4,69.4-69.4c38.3,0,69.4,31.1,69.4,69.4
                   C687.5,505.5,656.5,536.6,618.2,536.6z M618.2,400.1c-37.1,0-67.1,30.1-67.1,67.1s30.1,67.1,67.1,67.1s67.1-30.1,67.1-67.1
                   c0,0,0,0,0,0C685.3,430.1,655.2,400.1,618.2,400.1L618.2,400.1z" class="st1">
          </path>
          <path d="M662.3,475.1H574v-15.7h88.2L662.3,475.1z M576.3,472.8H660v-11.2h-83.7V472.8z" class="st1">
          </path>
          <path d="M875.2,536.6c-38.3,0-69.4-31.1-69.4-69.4c0-38.3,31.1-69.4,69.4-69.4c38.3,0,69.4,31.1,69.4,69.4
                   C944.6,505.5,913.5,536.6,875.2,536.6z M875.2,400.1c-37.1,0-67.1,30.1-67.1,67.1s30.1,67.1,67.1,67.1c37.1,0,67.1-30.1,67.1-67.1
                   c0,0,0,0,0,0C942.3,430.1,912.3,400.1,875.2,400.1L875.2,400.1z" class="st1">
          </path>
          <path d="M892.6,487.1v-12h-58.2v-15.7h58.2v-12.2l24,20.7L892.6,487.1z M836.7,472.8h58.2v9.6l18.2-14.6l-18.2-15.7v9.5
                   h-58.2L836.7,472.8z" class="st1">
          </path>
          <path d="M288.2,404.9c0,0,24,50,8,52s-20-45-20-45L288.2,404.9z" class="st4">
          </path>
          <polygon points="197.2,724.9 213.2,753.3 184.2,771.4 177.2,738 " class="st4">
          </polygon>
          <path d="M204,757.2c0,0,8.8-14.3,12-11.9s16.3,12.8,16.3,12.8l17.1,16.4c0,0,57.7,6.1,21,26.3s-56.9,3.5-56.9,3.5
                   s-51.3,2.7-50.5-11.7s17.4-37,17.4-37S201.2,769.6,204,757.2z" class="st5">
          </path>
          <path d="M204,757.2c0,0,8.8-14.3,12-11.9s16.3,12.8,16.3,12.8l17.1,16.4c0,0,57.7,6.1,21,26.3s-56.9,3.5-56.9,3.5
                   s-51.3,2.7-50.5-11.7s17.4-37,17.4-37S201.2,769.6,204,757.2z" class="st6">
          </path>
          <path d="M126.2,404.4l15,181.5c0,0,0.5,108.5,16.5,129.5s16.5,31.5,16.5,31.5l33-17c0,0-11-1-6-8s20,0,6-10
                   s-17-10.3-13.5-14.7c2.2-2.8,3.7-5.9,4.5-9.3l-9-112l17-195L126.2,404.4z" class="st5">
          </path>
          <path d="M126.2,404.4l15,181.5c0,0,0.5,108.5,16.5,129.5s16.5,31.5,16.5,31.5l33-17c0,0-11-1-6-8s20,0,6-10
                   s-17-10.3-13.5-14.7c2.2-2.8,3.7-5.9,4.5-9.3l-9-112l17-195L126.2,404.4z" class="st6">
          </path>
          <path d="M149.2,746.9" class="st7">
          </path>
          <polygon points="167.2,724.9 153.2,761.9 113.2,746.9 138.2,720.9 " class="st4">
          </polygon>
          <path d="M147.3,746c0,0,14.9-9.3,16.8-5.6s9.3,19.6,9.3,19.6l8.4,23.4c0,0,51.4,32.7,7.5,34.6s-55.1-23.4-55.1-23.4
                   s-49.5-21.5-42-34.6s33.6-26.6,33.6-26.6S138.9,756.3,147.3,746z" class="st5">
          </path>
          <path d="M253.2,404.9l8,167c0,0-39,111-73,129c0,0,0,22-8,26c-4.8,2.5-8.4,6.8-10,12l-44-11c0,0,11-11,7-16s13-16,13-16
                   l44-107c0,0,7-3,9-13s6-10-4-12s-10-12-10-12l-33-152L253.2,404.9z" class="st5">
          </path>
          <ellipse transform="matrix(0.1602 -0.9871 0.9871 0.1602 80.7549 300.8062)" cx="217.2" cy="102.9" rx="40" ry="40" class="st4">
          </ellipse>
          <path d="M181.7,105.4c0,0-3,51-7,56s42,4,42,4s-3-43,0-47S181.7,105.4,181.7,105.4z" class="st4">
          </path>
          <path d="M168.2,145.9c0,0,38-4,52,8c4.5,3.8,9.3,7.2,14.3,10.2c8.6,5.1,14,14.3,14.3,24.3l7.4,227.4c0,0-113-10-134,0
                   c0,0-1-23-3-26c-1.5-2.2-4-89.4-5.2-136.5c-0.7-26.6,8.4-52.7,26.3-72.4c6.1-6.7,12.8-12.3,20-15.1
                   C160.2,165.9,158.2,146.9,168.2,145.9z" class="st8">
          </path>
          <path d="M229.2,165.9L229.2,165.9c11.5,3,20.1,12.7,21.7,24.5l14.3,101.5l20,81c0,0,10,9,6,14s5,26,5,26l-25,8
                   c0,0-3-21-8-22c-4.4-0.9-53.6-132.3-65.4-164.1c-1.6-4.4-2.6-6.9-2.6-6.9S197.2,160.9,229.2,165.9z" class="st8">
          </path>
          <path d="M195.7,227.4l60.5,163.7C256.2,391.1,197.7,280.4,195.7,227.4z" class="st6">
          </path>
          <path d="M196.3,114.7c3.4-0.2,6.7,0.9,10,1.4c12,1.6,24.5-7.1,27.2-19c0.2-1.6,0.7-3.1,1.4-4.5c1.8-3,6.1-3.6,9.5-2.9
                   s6.8,2.3,10.3,2.5c5.5,0.3,10.7-3.1,13.6-7.7s3.7-10.3,3.3-15.8l-2.6,2.7c-1.1-2.3-1.5-4.8-1.2-7.2c-2.8-0.8-5.8,0-7.9,2
                   c-2.3,0.2-0.6-4.3-2.3-5.8c-0.7-0.7-1.8-0.5-2.8-0.5c-4.9,0-8.9-3.7-12.8-6.7c-6.7-5.2-14.5-8.8-22.9-10.4
                   c-5.5-1.1-11.4-1.3-16.7,0.8c-4.3,1.7-7.9,4.8-11.3,8c-8.2,7.9-15.5,17.2-18.9,28.1c-2.8,8.9-2.9,18.5-0.2,27.4
                   c1.4,4.7,5.5,20.6,11.6,21C191.3,128.6,186.7,115.3,196.3,114.7z" class="st5">
          </path>
          <path d="M71.6,810.4l-1.1-0.4c-0.2-0.1-23.7-9.1-34.7-29.5c-11-20.4-5.6-44.9-5.6-45.2l0.3-1.1l1.1,0.4
                   c0.2,0.1,23.7,9.1,34.7,29.5c11,20.4,5.6,44.9,5.6,45.2L71.6,810.4z M37.5,779.5c9.3,17.2,27.8,26.1,32.5,28.1
                   c0.9-5,3.7-25.4-5.6-42.6c-9.3-17.2-27.8-26.1-32.5-28.1C31.1,742,28.3,762.3,37.5,779.5L37.5,779.5z" class="st1">
          </path>
          <path d="M44.2,773.3c19.8,11.9,27.4,35.5,27.4,35.5s-24.4,4.3-44.2-7.5S0,765.8,0,765.8S24.4,761.5,44.2,773.3z" class="st2">
          </path>
        </svg>
